<?xml version="1.0" ?>
<mxfile host="65bd71144e">
	<diagram id="code-graph" name="Page-1">
		<mxGraphModel dx="422" dy="816" grid="1" gridSize="10" guides="1" tooltips="1" connect="1" arrows="1" fold="1" page="1" pageScale="1" pageWidth="850" pageHeight="1100" math="0" shadow="0">
			<root>
				<mxCell id="0"/>
				<mxCell id="1" parent="0"/>
				<mxCell id="5069294944" value="&lt;b&gt;Module&lt;/b&gt;" style="whiteSpace=wrap;html=1;rounded=1;fillColor=#CC99FF;strokeColor=#000000" parent="1" vertex="1">
					<mxGeometry x="358.98" y="0.0" width="120" height="60" as="geometry"/>
				</mxCell>
				<mxCell id="5069295904" value="&lt;b&gt;FunctionDef&lt;/b&gt;&lt;br&gt;name: main" style="whiteSpace=wrap;html=1;rounded=1;fillColor=#CC99FF;strokeColor=#000000" parent="1" vertex="1">
					<mxGeometry x="358.98" y="93.60000000000001" width="120" height="60" as="geometry"/>
				</mxCell>
				<mxCell id="5069294464" value="&lt;b&gt;arguments&lt;/b&gt;" style="whiteSpace=wrap;html=1;rounded=1;fillColor=#E6E6E6;strokeColor=#000000" parent="1" vertex="1">
					<mxGeometry x="188.98" y="187.20000000000002" width="120" height="60" as="geometry"/>
				</mxCell>
				<mxCell id="5069292016" value="&lt;b&gt;Assign&lt;/b&gt;" style="whiteSpace=wrap;html=1;rounded=1;fillColor=#D6FFC9;strokeColor=#000000" parent="1" vertex="1">
					<mxGeometry x="358.98" y="187.20000000000002" width="120" height="60" as="geometry"/>
				</mxCell>
				<mxCell id="5069302144" value="&lt;b&gt;Name&lt;/b&gt;&lt;br&gt;id: y&lt;br&gt;ctx: Store" style="whiteSpace=wrap;html=1;rounded=1;fillColor=#CCE5FF;strokeColor=#000000" parent="1" vertex="1">
					<mxGeometry x="358.98" y="280.8" width="120" height="60" as="geometry"/>
				</mxCell>
				<mxCell id="5069300752" value="&lt;b&gt;Constant&lt;/b&gt;&lt;br&gt;value: 2" style="whiteSpace=wrap;html=1;rounded=1;fillColor=#FFF2CC;strokeColor=#000000" parent="1" vertex="1">
					<mxGeometry x="226.98" y="280.8" width="120" height="60" as="geometry"/>
				</mxCell>
				<mxCell id="5335792752" value="&lt;b&gt;FunctionDef&lt;/b&gt;&lt;br&gt;name: extracted_function" style="whiteSpace=wrap;html=1;rounded=1;fillColor=#CC99FF;strokeColor=#000000" parent="1" vertex="1">
					<mxGeometry x="622.98" y="187.20000000000002" width="120" height="60" as="geometry"/>
				</mxCell>
				<mxCell id="5069127200" value="&lt;b&gt;arguments&lt;/b&gt;" style="whiteSpace=wrap;html=1;rounded=1;fillColor=#E6E6E6;strokeColor=#000000" parent="1" vertex="1">
					<mxGeometry x="490.98" y="280.8" width="120" height="60" as="geometry"/>
				</mxCell>
				<mxCell id="4796498464" value="&lt;b&gt;arg&lt;/b&gt;&lt;br&gt;arg: y" style="whiteSpace=wrap;html=1;rounded=1;fillColor=#E6E6E6;strokeColor=#000000" parent="1" vertex="1">
					<mxGeometry x="358.98" y="374.40000000000003" width="120" height="60" as="geometry"/>
				</mxCell>
				<mxCell id="5069302480" value="&lt;b&gt;Assign&lt;/b&gt;" style="whiteSpace=wrap;html=1;rounded=1;fillColor=#D6FFC9;strokeColor=#000000" parent="1" vertex="1">
					<mxGeometry x="622.98" y="280.8" width="120" height="60" as="geometry"/>
				</mxCell>
				<mxCell id="5069298352" value="&lt;b&gt;Name&lt;/b&gt;&lt;br&gt;id: x&lt;br&gt;ctx: Store" style="whiteSpace=wrap;html=1;rounded=1;fillColor=#CCE5FF;strokeColor=#000000" parent="1" vertex="1">
					<mxGeometry x="490.98" y="374.40000000000003" width="120" height="60" as="geometry"/>
				</mxCell>
				<mxCell id="5069298016" value="&lt;b&gt;Constant&lt;/b&gt;&lt;br&gt;value: 2" style="whiteSpace=wrap;html=1;rounded=1;fillColor=#FFF2CC;strokeColor=#000000" parent="1" vertex="1">
					<mxGeometry x="622.98" y="374.40000000000003" width="120" height="60" as="geometry"/>
				</mxCell>
				<mxCell id="5069292544" value="&lt;b&gt;Assign&lt;/b&gt;" style="whiteSpace=wrap;html=1;rounded=1;fillColor=#D6FFC9;strokeColor=#000000" parent="1" vertex="1">
					<mxGeometry x="754.98" y="280.8" width="120" height="60" as="geometry"/>
				</mxCell>
				<mxCell id="5069298112" value="&lt;b&gt;Name&lt;/b&gt;&lt;br&gt;id: z&lt;br&gt;ctx: Store" style="whiteSpace=wrap;html=1;rounded=1;fillColor=#CCE5FF;strokeColor=#000000" parent="1" vertex="1">
					<mxGeometry x="754.98" y="374.40000000000003" width="120" height="60" as="geometry"/>
				</mxCell>
				<mxCell id="5069298256" value="&lt;b&gt;BinOp&lt;/b&gt;" style="whiteSpace=wrap;html=1;rounded=1;fillColor=#CCCCFF;strokeColor=#000000" parent="1" vertex="1">
					<mxGeometry x="886.98" y="374.40000000000003" width="120" height="60" as="geometry"/>
				</mxCell>
				<mxCell id="5069298736" value="&lt;b&gt;Name&lt;/b&gt;&lt;br&gt;id: x&lt;br&gt;ctx: Load" style="whiteSpace=wrap;html=1;rounded=1;fillColor=#CCE5FF;strokeColor=#000000" parent="1" vertex="1">
					<mxGeometry x="575.98" y="468.0" width="120" height="60" as="geometry"/>
				</mxCell>
				<mxCell id="5069307760" value="&lt;b&gt;Add&lt;/b&gt;" style="whiteSpace=wrap;html=1;rounded=1;fillColor=#E6E6E6;strokeColor=#000000" parent="1" vertex="1">
					<mxGeometry x="707.98" y="468.0" width="120" height="60" as="geometry"/>
				</mxCell>
				<mxCell id="5069293408" value="&lt;b&gt;Name&lt;/b&gt;&lt;br&gt;id: y&lt;br&gt;ctx: Load" style="whiteSpace=wrap;html=1;rounded=1;fillColor=#CCE5FF;strokeColor=#000000" parent="1" vertex="1">
					<mxGeometry x="839.98" y="468.0" width="120" height="60" as="geometry"/>
				</mxCell>
				<mxCell id="5095492864" value="&lt;b&gt;Return&lt;/b&gt;" style="whiteSpace=wrap;html=1;rounded=1;fillColor=#D6FFC9;strokeColor=#000000" parent="1" vertex="1">
					<mxGeometry x="929.98" y="280.8" width="120" height="60" as="geometry"/>
				</mxCell>
				<mxCell id="5095495840" value="&lt;b&gt;Name&lt;/b&gt;&lt;br&gt;id: z&lt;br&gt;ctx: Load" style="whiteSpace=wrap;html=1;rounded=1;fillColor=#CCE5FF;strokeColor=#000000" parent="1" vertex="1">
					<mxGeometry x="971.98" y="468.0" width="120" height="60" as="geometry"/>
				</mxCell>
				<mxCell id="5335561024" value="&lt;b&gt;Assign&lt;/b&gt;" style="whiteSpace=wrap;html=1;rounded=1;fillColor=#D6FFC9;strokeColor=#000000" parent="1" vertex="1">
					<mxGeometry x="94.981" y="280.8" width="120" height="60" as="geometry"/>
				</mxCell>
				<mxCell id="5335549072" value="&lt;b&gt;Name&lt;/b&gt;&lt;br&gt;id: z&lt;br&gt;ctx: Store" style="whiteSpace=wrap;html=1;rounded=1;fillColor=#CCE5FF;strokeColor=#000000" parent="1" vertex="1">
					<mxGeometry x="188.98" y="374.40000000000003" width="120" height="60" as="geometry"/>
				</mxCell>
				<mxCell id="5095492768" value="&lt;b&gt;Call&lt;/b&gt;" style="whiteSpace=wrap;html=1;rounded=1;fillColor=#FFCCFF;strokeColor=#000000" parent="1" vertex="1">
					<mxGeometry x="56.981" y="374.40000000000003" width="120" height="60" as="geometry"/>
				</mxCell>
				<mxCell id="5095501120" value="&lt;b&gt;Name&lt;/b&gt;&lt;br&gt;id: extracted_function&lt;br&gt;ctx: Load" style="whiteSpace=wrap;html=1;rounded=1;fillColor=#CCE5FF;strokeColor=#000000" parent="1" vertex="1">
					<mxGeometry x="72.981" y="468.0" width="120" height="60" as="geometry"/>
				</mxCell>
				<mxCell id="5095499200" value="&lt;b&gt;Name&lt;/b&gt;&lt;br&gt;id: y&lt;br&gt;ctx: Load" style="whiteSpace=wrap;html=1;rounded=1;fillColor=#CCE5FF;strokeColor=#000000" parent="1" vertex="1">
					<mxGeometry x="265.98" y="468.0" width="120" height="60" as="geometry"/>
				</mxCell>
				<mxCell id="5069298400" value="&lt;b&gt;Return&lt;/b&gt;" style="whiteSpace=wrap;html=1;rounded=1;fillColor=#D6FFC9;strokeColor=#000000" parent="1" vertex="1">
					<mxGeometry x="928.98" y="187.20000000000002" width="120" height="60" as="geometry"/>
				</mxCell>
				<mxCell id="5069300272" value="&lt;b&gt;Name&lt;/b&gt;&lt;br&gt;id: z&lt;br&gt;ctx: Load" style="whiteSpace=wrap;html=1;rounded=1;fillColor=#CCE5FF;strokeColor=#000000" parent="1" vertex="1">
					<mxGeometry x="1104.0" y="468.0" width="120" height="60" as="geometry"/>
				</mxCell>
				<mxCell id="5069294944_5069295904" value="['body', 0]" style="endArrow=classic;html=1;strokeColor=#000000" parent="1" source="5069294944" target="5069295904" edge="1">
					<mxGeometry width="50" height="50" relative="1" as="geometry">
						<mxPoint x="400" y="440" as="sourcePoint"/>
						<mxPoint x="450" y="390" as="targetPoint"/>
					</mxGeometry>
				</mxCell>
				<mxCell id="5069295904_5069294464" value="['args']" style="endArrow=classic;html=1;strokeColor=#000000" parent="1" source="5069295904" target="5069294464" edge="1">
					<mxGeometry width="50" height="50" relative="1" as="geometry">
						<mxPoint x="400" y="440" as="sourcePoint"/>
						<mxPoint x="450" y="390" as="targetPoint"/>
					</mxGeometry>
				</mxCell>
				<mxCell id="5069295904_5069292016" value="['body', 0]" style="endArrow=classic;html=1;strokeColor=#000000" parent="1" source="5069295904" target="5069292016" edge="1">
					<mxGeometry width="50" height="50" relative="1" as="geometry">
						<mxPoint x="400" y="440" as="sourcePoint"/>
						<mxPoint x="450" y="390" as="targetPoint"/>
					</mxGeometry>
				</mxCell>
				<mxCell id="5069292016_5069302144" value="['targets', 0]" style="endArrow=classic;html=1;strokeColor=#000000" parent="1" source="5069292016" target="5069302144" edge="1">
					<mxGeometry width="50" height="50" relative="1" as="geometry">
						<mxPoint x="400" y="440" as="sourcePoint"/>
						<mxPoint x="450" y="390" as="targetPoint"/>
					</mxGeometry>
				</mxCell>
				<mxCell id="5069292016_5069300752" value="['value']" style="endArrow=classic;html=1;strokeColor=#000000" parent="1" source="5069292016" target="5069300752" edge="1">
					<mxGeometry width="50" height="50" relative="1" as="geometry">
						<mxPoint x="400" y="440" as="sourcePoint"/>
						<mxPoint x="450" y="390" as="targetPoint"/>
					</mxGeometry>
				</mxCell>
				<mxCell id="5069295904_5335792752" value="['body', 1]" style="endArrow=classic;html=1;strokeColor=#000000" parent="1" source="5069295904" target="5335792752" edge="1">
					<mxGeometry width="50" height="50" relative="1" as="geometry">
						<mxPoint x="400" y="440" as="sourcePoint"/>
						<mxPoint x="450" y="390" as="targetPoint"/>
					</mxGeometry>
				</mxCell>
				<mxCell id="5335792752_5069127200" value="['args']" style="endArrow=classic;html=1;strokeColor=#000000" parent="1" source="5335792752" target="5069127200" edge="1">
					<mxGeometry width="50" height="50" relative="1" as="geometry">
						<mxPoint x="400" y="440" as="sourcePoint"/>
						<mxPoint x="450" y="390" as="targetPoint"/>
					</mxGeometry>
				</mxCell>
				<mxCell id="5069127200_4796498464" value="['args', 0]" style="endArrow=classic;html=1;strokeColor=#000000" parent="1" source="5069127200" target="4796498464" edge="1">
					<mxGeometry width="50" height="50" relative="1" as="geometry">
						<mxPoint x="400" y="440" as="sourcePoint"/>
						<mxPoint x="450" y="390" as="targetPoint"/>
					</mxGeometry>
				</mxCell>
				<mxCell id="5335792752_5069302480" value="['body', 0]" style="endArrow=classic;html=1;strokeColor=#000000" parent="1" source="5335792752" target="5069302480" edge="1">
					<mxGeometry width="50" height="50" relative="1" as="geometry">
						<mxPoint x="400" y="440" as="sourcePoint"/>
						<mxPoint x="450" y="390" as="targetPoint"/>
					</mxGeometry>
				</mxCell>
				<mxCell id="5069302480_5069298352" value="['targets', 0]" style="endArrow=classic;html=1;strokeColor=#000000" parent="1" source="5069302480" target="5069298352" edge="1">
					<mxGeometry width="50" height="50" relative="1" as="geometry">
						<mxPoint x="400" y="440" as="sourcePoint"/>
						<mxPoint x="450" y="390" as="targetPoint"/>
					</mxGeometry>
				</mxCell>
				<mxCell id="5069302480_5069298016" value="['value']" style="endArrow=classic;html=1;strokeColor=#000000" parent="1" source="5069302480" target="5069298016" edge="1">
					<mxGeometry width="50" height="50" relative="1" as="geometry">
						<mxPoint x="400" y="440" as="sourcePoint"/>
						<mxPoint x="450" y="390" as="targetPoint"/>
					</mxGeometry>
				</mxCell>
				<mxCell id="5335792752_5069292544" value="['body', 1]" style="endArrow=classic;html=1;strokeColor=#000000" parent="1" source="5335792752" target="5069292544" edge="1">
					<mxGeometry width="50" height="50" relative="1" as="geometry">
						<mxPoint x="400" y="440" as="sourcePoint"/>
						<mxPoint x="450" y="390" as="targetPoint"/>
					</mxGeometry>
				</mxCell>
				<mxCell id="5069292544_5069298112" value="['targets', 0]" style="endArrow=classic;html=1;strokeColor=#000000" parent="1" source="5069292544" target="5069298112" edge="1">
					<mxGeometry width="50" height="50" relative="1" as="geometry">
						<mxPoint x="400" y="440" as="sourcePoint"/>
						<mxPoint x="450" y="390" as="targetPoint"/>
					</mxGeometry>
				</mxCell>
				<mxCell id="5069292544_5069298256" value="['value']" style="endArrow=classic;html=1;strokeColor=#000000" parent="1" source="5069292544" target="5069298256" edge="1">
					<mxGeometry width="50" height="50" relative="1" as="geometry">
						<mxPoint x="400" y="440" as="sourcePoint"/>
						<mxPoint x="450" y="390" as="targetPoint"/>
					</mxGeometry>
				</mxCell>
				<mxCell id="5069298256_5069298736" value="['left']" style="endArrow=classic;html=1;strokeColor=#000000" parent="1" source="5069298256" target="5069298736" edge="1">
					<mxGeometry width="50" height="50" relative="1" as="geometry">
						<mxPoint x="400" y="440" as="sourcePoint"/>
						<mxPoint x="450" y="390" as="targetPoint"/>
					</mxGeometry>
				</mxCell>
				<mxCell id="5069298256_5069307760" value="['op']" style="endArrow=classic;html=1;strokeColor=#000000" parent="1" source="5069298256" target="5069307760" edge="1">
					<mxGeometry width="50" height="50" relative="1" as="geometry">
						<mxPoint x="400" y="440" as="sourcePoint"/>
						<mxPoint x="450" y="390" as="targetPoint"/>
					</mxGeometry>
				</mxCell>
				<mxCell id="5069298256_5069293408" value="['right']" style="endArrow=classic;html=1;strokeColor=#000000" parent="1" source="5069298256" target="5069293408" edge="1">
					<mxGeometry width="50" height="50" relative="1" as="geometry">
						<mxPoint x="400" y="440" as="sourcePoint"/>
						<mxPoint x="450" y="390" as="targetPoint"/>
					</mxGeometry>
				</mxCell>
				<mxCell id="5335792752_5095492864" value="['body', 2]" style="endArrow=classic;html=1;strokeColor=#000000" parent="1" source="5335792752" target="5095492864" edge="1">
					<mxGeometry width="50" height="50" relative="1" as="geometry">
						<mxPoint x="400" y="440" as="sourcePoint"/>
						<mxPoint x="450" y="390" as="targetPoint"/>
					</mxGeometry>
				</mxCell>
				<mxCell id="5095492864_5095495840" value="['value']" style="endArrow=classic;html=1;strokeColor=#000000" parent="1" source="5095492864" target="5095495840" edge="1">
					<mxGeometry width="50" height="50" relative="1" as="geometry">
						<mxPoint x="400" y="440" as="sourcePoint"/>
						<mxPoint x="450" y="390" as="targetPoint"/>
					</mxGeometry>
				</mxCell>
				<mxCell id="5069295904_5335561024" value="['body', 2]" style="endArrow=classic;html=1;strokeColor=#000000" parent="1" source="5069295904" target="5335561024" edge="1">
					<mxGeometry width="50" height="50" relative="1" as="geometry">
						<mxPoint x="400" y="440" as="sourcePoint"/>
						<mxPoint x="450" y="390" as="targetPoint"/>
					</mxGeometry>
				</mxCell>
				<mxCell id="5335561024_5335549072" value="['targets', 0]" style="endArrow=classic;html=1;strokeColor=#000000" parent="1" source="5335561024" target="5335549072" edge="1">
					<mxGeometry width="50" height="50" relative="1" as="geometry">
						<mxPoint x="400" y="440" as="sourcePoint"/>
						<mxPoint x="450" y="390" as="targetPoint"/>
					</mxGeometry>
				</mxCell>
				<mxCell id="5335561024_5095492768" value="['value']" style="endArrow=classic;html=1;strokeColor=#000000" parent="1" source="5335561024" target="5095492768" edge="1">
					<mxGeometry width="50" height="50" relative="1" as="geometry">
						<mxPoint x="400" y="440" as="sourcePoint"/>
						<mxPoint x="450" y="390" as="targetPoint"/>
					</mxGeometry>
				</mxCell>
				<mxCell id="5095492768_5095501120" value="['func']" style="endArrow=classic;html=1;strokeColor=#000000" parent="1" source="5095492768" target="5095501120" edge="1">
					<mxGeometry width="50" height="50" relative="1" as="geometry">
						<mxPoint x="400" y="440" as="sourcePoint"/>
						<mxPoint x="450" y="390" as="targetPoint"/>
					</mxGeometry>
				</mxCell>
				<mxCell id="5095492768_5095499200" value="['args', 0]" style="endArrow=classic;html=1;strokeColor=#000000" parent="1" source="5095492768" target="5095499200" edge="1">
					<mxGeometry width="50" height="50" relative="1" as="geometry">
						<mxPoint x="400" y="440" as="sourcePoint"/>
						<mxPoint x="450" y="390" as="targetPoint"/>
					</mxGeometry>
				</mxCell>
				<mxCell id="5069295904_5069298400" value="['body', 3]" style="endArrow=classic;html=1;strokeColor=#000000" parent="1" source="5069295904" target="5069298400" edge="1">
					<mxGeometry width="50" height="50" relative="1" as="geometry">
						<mxPoint x="400" y="440" as="sourcePoint"/>
						<mxPoint x="450" y="390" as="targetPoint"/>
					</mxGeometry>
				</mxCell>
				<mxCell id="5069298400_5069300272" value="['value']" style="endArrow=classic;html=1;strokeColor=#000000" parent="1" source="5069298400" target="5069300272" edge="1">
					<mxGeometry width="50" height="50" relative="1" as="geometry">
						<mxPoint x="400" y="440" as="sourcePoint"/>
						<mxPoint x="450" y="390" as="targetPoint"/>
					</mxGeometry>
				</mxCell>
				<mxCell id="stx_y_5069295904" value="&lt;b&gt;SyntaxToken&lt;/b&gt;&lt;br&gt;name: y&lt;br&gt;scope: main" style="whiteSpace=wrap;html=1;rounded=1;fillColor=#66B2FF;strokeColor=#66B2FF" parent="1" vertex="1">
					<mxGeometry x="-150" y="0.0" width="120" height="60" as="geometry"/>
				</mxCell>
				<mxCell id="stx_z_5069295904" value="&lt;b&gt;SyntaxToken&lt;/b&gt;&lt;br&gt;name: z&lt;br&gt;scope: main" style="whiteSpace=wrap;html=1;rounded=1;fillColor=#66B2FF;strokeColor=#66B2FF" parent="1" vertex="1">
					<mxGeometry x="-150" y="65.0" width="120" height="60" as="geometry"/>
				</mxCell>
				<mxCell id="stx_extracted_function_5069295904" value="&lt;b&gt;SyntaxToken&lt;/b&gt;&lt;br&gt;name: extracted_function&lt;br&gt;scope: main" style="whiteSpace=wrap;html=1;rounded=1;fillColor=#66B2FF;strokeColor=#66B2FF" parent="1" vertex="1">
					<mxGeometry x="-150" y="130.0" width="120" height="60" as="geometry"/>
				</mxCell>
				<mxCell id="stx_y_5335792752" value="&lt;b&gt;SyntaxToken&lt;/b&gt;&lt;br&gt;name: y&lt;br&gt;scope: extracted_function" style="whiteSpace=wrap;html=1;rounded=1;fillColor=#66B2FF;strokeColor=#66B2FF" parent="1" vertex="1">
					<mxGeometry x="-150" y="195.0" width="120" height="60" as="geometry"/>
				</mxCell>
				<mxCell id="stx_x_5335792752" value="&lt;b&gt;SyntaxToken&lt;/b&gt;&lt;br&gt;name: x&lt;br&gt;scope: extracted_function" style="whiteSpace=wrap;html=1;rounded=1;fillColor=#66B2FF;strokeColor=#66B2FF" parent="1" vertex="1">
					<mxGeometry x="-150" y="260.0" width="120" height="60" as="geometry"/>
				</mxCell>
				<mxCell id="stx_z_5335792752" value="&lt;b&gt;SyntaxToken&lt;/b&gt;&lt;br&gt;name: z&lt;br&gt;scope: extracted_function" style="whiteSpace=wrap;html=1;rounded=1;fillColor=#66B2FF;strokeColor=#66B2FF" parent="1" vertex="1">
					<mxGeometry x="-150" y="325.0" width="120" height="60" as="geometry"/>
				</mxCell>
				<mxCell id="stx_y_5069295904_5069302144" value="" style="edgeStyle=segmentEdgeStyle;endArrow=classic;html=1;rounded=1;endSize=8;startSize=8;entryX=0.3440949023142693;entryY=0;entryDx=0;entryDy=0;opacity=70;shadow=0;dashed=1;jumpSize=6;strokeColor=#66B2FF" parent="1" source="stx_y_5069295904" target="5069302144" edge="1">
					<mxGeometry width="50" height="50" relative="1" as="geometry">
						<mxPoint x="400" y="440" as="sourcePoint"/>
						<mxPoint x="450" y="390" as="targetPoint"/>
					</mxGeometry>
				</mxCell>
				<mxCell id="stx_y_5069295904_5095499200" value="" style="edgeStyle=segmentEdgeStyle;endArrow=classic;html=1;rounded=1;endSize=8;startSize=8;entryX=0.33031007000801027;entryY=0;entryDx=0;entryDy=0;opacity=70;shadow=0;dashed=1;jumpSize=6;strokeColor=#66B2FF" parent="1" source="stx_y_5069295904" target="5095499200" edge="1">
					<mxGeometry width="50" height="50" relative="1" as="geometry">
						<mxPoint x="400" y="440" as="sourcePoint"/>
						<mxPoint x="450" y="390" as="targetPoint"/>
					</mxGeometry>
				</mxCell>
				<mxCell id="stx_z_5069295904_5335549072" value="" style="edgeStyle=segmentEdgeStyle;endArrow=classic;html=1;rounded=1;endSize=8;startSize=8;entryX=0.4271091287183797;entryY=0;entryDx=0;entryDy=0;opacity=70;shadow=0;dashed=1;jumpSize=6;strokeColor=#66B2FF" parent="1" source="stx_z_5069295904" target="5335549072" edge="1">
					<mxGeometry width="50" height="50" relative="1" as="geometry">
						<mxPoint x="400" y="440" as="sourcePoint"/>
						<mxPoint x="450" y="390" as="targetPoint"/>
					</mxGeometry>
				</mxCell>
				<mxCell id="stx_z_5069295904_5069300272" value="" style="edgeStyle=segmentEdgeStyle;endArrow=classic;html=1;rounded=1;endSize=8;startSize=8;entryX=0.2708856823851822;entryY=0;entryDx=0;entryDy=0;opacity=70;shadow=0;dashed=1;jumpSize=6;strokeColor=#66B2FF" parent="1" source="stx_z_5069295904" target="5069300272" edge="1">
					<mxGeometry width="50" height="50" relative="1" as="geometry">
						<mxPoint x="400" y="440" as="sourcePoint"/>
						<mxPoint x="450" y="390" as="targetPoint"/>
					</mxGeometry>
				</mxCell>
				<mxCell id="stx_extracted_function_5069295904_5095501120" value="" style="edgeStyle=segmentEdgeStyle;endArrow=classic;html=1;rounded=1;endSize=8;startSize=8;entryX=0.4979049999454277;entryY=0;entryDx=0;entryDy=0;opacity=70;shadow=0;dashed=1;jumpSize=6;strokeColor=#66B2FF" parent="1" source="stx_extracted_function_5069295904" target="5095501120" edge="1">
					<mxGeometry width="50" height="50" relative="1" as="geometry">
						<mxPoint x="400" y="440" as="sourcePoint"/>
						<mxPoint x="450" y="390" as="targetPoint"/>
					</mxGeometry>
				</mxCell>
				<mxCell id="stx_y_5335792752_4796498464" value="" style="edgeStyle=segmentEdgeStyle;endArrow=classic;html=1;rounded=1;endSize=8;startSize=8;entryX=0.35136838354164857;entryY=0;entryDx=0;entryDy=0;opacity=70;shadow=0;dashed=1;jumpSize=6;strokeColor=#66B2FF" parent="1" source="stx_y_5335792752" target="4796498464" edge="1">
					<mxGeometry width="50" height="50" relative="1" as="geometry">
						<mxPoint x="400" y="440" as="sourcePoint"/>
						<mxPoint x="450" y="390" as="targetPoint"/>
					</mxGeometry>
				</mxCell>
				<mxCell id="stx_y_5335792752_5069293408" value="" style="edgeStyle=segmentEdgeStyle;endArrow=classic;html=1;rounded=1;endSize=8;startSize=8;entryX=0.45343432822165575;entryY=0;entryDx=0;entryDy=0;opacity=70;shadow=0;dashed=1;jumpSize=6;strokeColor=#66B2FF" parent="1" source="stx_y_5335792752" target="5069293408" edge="1">
					<mxGeometry width="50" height="50" relative="1" as="geometry">
						<mxPoint x="400" y="440" as="sourcePoint"/>
						<mxPoint x="450" y="390" as="targetPoint"/>
					</mxGeometry>
				</mxCell>
				<mxCell id="stx_x_5335792752_5069298352" value="" style="edgeStyle=segmentEdgeStyle;endArrow=classic;html=1;rounded=1;endSize=8;startSize=8;entryX=0.36739506192123184;entryY=0;entryDx=0;entryDy=0;opacity=70;shadow=0;dashed=1;jumpSize=6;strokeColor=#66B2FF" parent="1" source="stx_x_5335792752" target="5069298352" edge="1">
					<mxGeometry width="50" height="50" relative="1" as="geometry">
						<mxPoint x="400" y="440" as="sourcePoint"/>
						<mxPoint x="450" y="390" as="targetPoint"/>
					</mxGeometry>
				</mxCell>
				<mxCell id="stx_x_5335792752_5069298736" value="" style="edgeStyle=segmentEdgeStyle;endArrow=classic;html=1;rounded=1;endSize=8;startSize=8;entryX=0.38049724904934173;entryY=0;entryDx=0;entryDy=0;opacity=70;shadow=0;dashed=1;jumpSize=6;strokeColor=#66B2FF" parent="1" source="stx_x_5335792752" target="5069298736" edge="1">
					<mxGeometry width="50" height="50" relative="1" as="geometry">
						<mxPoint x="400" y="440" as="sourcePoint"/>
						<mxPoint x="450" y="390" as="targetPoint"/>
					</mxGeometry>
				</mxCell>
				<mxCell id="stx_z_5335792752_5069298112" value="" style="edgeStyle=segmentEdgeStyle;endArrow=classic;html=1;rounded=1;endSize=8;startSize=8;entryX=0.457056452145927;entryY=0;entryDx=0;entryDy=0;opacity=70;shadow=0;dashed=1;jumpSize=6;strokeColor=#66B2FF" parent="1" source="stx_z_5335792752" target="5069298112" edge="1">
					<mxGeometry width="50" height="50" relative="1" as="geometry">
						<mxPoint x="400" y="440" as="sourcePoint"/>
						<mxPoint x="450" y="390" as="targetPoint"/>
					</mxGeometry>
				</mxCell>
				<mxCell id="stx_z_5335792752_5095495840" value="" style="edgeStyle=segmentEdgeStyle;endArrow=classic;html=1;rounded=1;endSize=8;startSize=8;entryX=0.3807211891997312;entryY=0;entryDx=0;entryDy=0;opacity=70;shadow=0;dashed=1;jumpSize=6;strokeColor=#66B2FF" parent="1" source="stx_z_5335792752" target="5095495840" edge="1">
					<mxGeometry width="50" height="50" relative="1" as="geometry">
						<mxPoint x="400" y="440" as="sourcePoint"/>
						<mxPoint x="450" y="390" as="targetPoint"/>
					</mxGeometry>
				</mxCell>
			</root>
		</mxGraphModel>
	</diagram>
</mxfile>
